<svg xmlns="http://www.w3.org/2000/svg" width="1000" height="1000" version="1"><path fill="#FFF" d="M780 434l38-65v170l-14 24-24-13zM774 430l-123 71-37-22 197-114z"/><path fill="#FFF" d="M498 502l428-247 1 492-427 247-2-492zm421 240l-2-472-410 237 1 472 411-237"/><path fill="#FFF" d="M628 673l19-32 131-76 19 11-19 32-131 76z"/><g><path fill="#FFF" d="M652 819l123-71 37 22-197 114zM645 699v116l-37 65-1-170 14-25z"/></g><g><path fill="#FFF" d="M74 255l428 247-2 492L73 747l1-492zm418 724l1-472L83 270l-2 472 411 237"/><path fill="#FFF" d="M199 574l19-11 131 76 20 32-20 11-131-76zM222 746l122 71 38 65-197-114zM352 697l24-14 13 25v170l-38-65z"/><g><path fill="#FFF" d="M345 499l-122-71-37-65 197 114zM352 510l38-21-1 170-13 8-24-41z"/></g></g><g><path fill="#FFF" d="M699 219h75l-147 85h-28v-27zM584 282l1 22h-38l-132-76 1-21h37zM537 312h48l-1 17-147 85v-43z"/><path fill="#FFF" d="M499 8l427 247-425 247L74 255 499 8zm2 485l408-238L499 18 91 255l410 238"/><path fill="#FFF" d="M563 140l-100 58-47 1v-17l147-85z"/></g></svg>