<?xml version="1.0" encoding="utf-8"?>
<!-- Generator: Adobe Illustrator 16.0.0, SVG Export Plug-In . SVG Version: 6.00 Build 0)  -->
<!DOCTYPE svg PUBLIC "-//W3C//DTD SVG 1.1//EN" "http://www.w3.org/Graphics/SVG/1.1/DTD/svg11.dtd">
<svg version="1.1" xmlns="http://www.w3.org/2000/svg" xmlns:xlink="http://www.w3.org/1999/xlink" x="0px" y="0px" width="1000px"
	 height="1000px" viewBox="0 0 1000 1000" enable-background="new 0 0 1000 1000" xml:space="preserve">
<g id="Layer_2" display="none">
	<rect x="-3060" display="inline" fill="#8A8A8A" width="4060" height="1000"/>
</g>
<g id="Layer_1">
	<g>
		<g>
			<g>
				<g>
					<g enable-background="new    ">
						<g>
							<polygon fill="#FFFFFF" points="780.146,434.125 817.667,368.975 818.149,539.195 804.462,563.33 780.474,549.924 							"/>
						</g>
						<g>
							<polygon fill="#FFFFFF" points="773.637,429.822 651.198,500.512 613.789,478.783 810.8,365.039 							"/>
						</g>
					</g>
					<g>
						<path fill="#FFFFFF" d="M498.16,502.207L925.971,255.21l1.394,491.588L499.554,993.795L498.16,502.207z M918.781,741.906
							l-1.338-471.925L506.751,507.096l1.338,471.925L918.781,741.906"/>
					</g>
					<g>
						<polygon fill="#FFFFFF" points="628.473,673.168 646.768,640.942 778.271,565.018 797.481,575.591 778.395,608.274 
							646.89,684.198 						"/>
					</g>
					<g enable-background="new    ">
						<g>
							<polygon fill="#FFFFFF" points="652.102,819.061 774.539,748.371 811.948,770.1 614.937,883.845 							"/>
						</g>
						<g>
							<polygon fill="#FFFFFF" points="645.058,698.895 645.387,814.833 607.859,880.053 607.379,710.199 621.389,685.268 							
								"/>
						</g>
					</g>
				</g>
			</g>
			<g>
				<g>
					<g>
						<path fill="#FFFFFF" d="M74.025,255.21l427.811,246.997l-1.394,491.588L72.631,746.798L74.025,255.21z M491.915,979.025
							l1.338-471.926L82.554,269.982l-1.338,471.925L491.915,979.025"/>
					</g>
					<g>
						<polygon fill="#FFFFFF" points="199.312,573.741 217.952,562.84 349.457,638.765 368.543,671.446 349.334,682.021 
							217.83,606.097 						"/>
					</g>
					<g enable-background="new    ">
						<g>
							<polygon fill="#FFFFFF" points="222.035,746.396 344.475,817.086 381.639,881.87 184.627,768.126 							"/>
						</g>
						<g>
							<polygon fill="#FFFFFF" points="351.518,696.811 375.506,683.345 389.198,708.1 388.716,878.078 351.189,812.828 							"/>
						</g>
					</g>
					<g enable-background="new    ">
						<g>
							<polygon fill="#FFFFFF" points="345.377,498.537 222.938,427.848 185.775,363.064 382.787,476.809 							"/>
						</g>
						<g>
							<polygon fill="#FFFFFF" points="352.047,510.317 389.82,488.631 389.338,658.851 375.551,667.124 351.719,626.115 							"/>
						</g>
					</g>
				</g>
			</g>
		</g>
		<g>
			<g>
				<g enable-background="new    ">
					<g>
						<polygon fill="#FFFFFF" points="698.672,218.592 773.861,218.508 626.688,304.036 598.941,304.25 598.551,276.776 						"/>
					</g>
					<g>
						<polygon fill="#FFFFFF" points="584.265,282.482 584.713,304.404 546.865,304.217 415.36,228.292 415.704,206.828 
							452.76,206.558 						"/>
					</g>
					<g>
						<polygon fill="#FFFFFF" points="537.416,312.304 584.916,312.4 584.093,328.789 437.033,414.251 437.029,370.643 						"/>
					</g>
					<g>
						<path fill="#FFFFFF" d="M498.611,8.497l427.803,246.992l-425.03,247L73.581,255.498L498.611,8.497z M501.328,492.611
							l408.03-237.122L498.666,18.376L90.635,255.498L501.328,492.611"/>
					</g>
					<g>
						<polygon fill="#FFFFFF" points="563.062,140.291 462.941,198.474 415.823,198.526 415.788,182.266 562.963,96.738 						"/>
					</g>
				</g>
			</g>
		</g>
	</g>
</g>
</svg>
