<svg xmlns="http://www.w3.org/2000/svg" width="1000" height="1000" version="1"><path fill="#FFF" d="M520 232l7-6 5-2 4-4 5-2 5-3 2-2 2-2 3-3 3-2 2-1 3-1 5 1 4 1 4 2 4 3 1 2 1 2v3l-1 2-1 2-4 2-4 2-4 1-5 2-4 2-5 2-6 3-7 3-6 3-7 4-12 6-6 3-11 6-6 3-5 3-4 3-13 8-8 1h-3l-1-2 1-2 4-1 3-3 6-4 9-6 2-3 3-3 9-5 3-2 4-3h3l2-2 7-4 2-2 3-2zM457 297l-2 1-4 1-9 3-5-1h-10l-5-2-5-1 4-5-1-3 3-2 3-1 4-1h6l5 1 4 2 2 2 2 2 3 1h4z"/><path fill="#FFF" d="M563 348l17 70-61-62 8 62-50-67-39 88v-99l-75 36 13-52-63 28 40-41-81 20 63-44-160 11 154-39-175-22 180-9-112-30 122 11-78-36 110 18-35-51 53 23-16-39 60 23 48-86 29 92 39-77 2 86 49-39-6 55 88-40-64 64 156-12-130 29 171 35-150-9 81 33-75-4 90 33-106-11 71 38-108-15 46 35-82-22 53 66-77-50zm-55 25l-7-51 56 57-14-55 47 30-30-37 66 17-36-27 95 13-68-37 85 9-79-29 79 4-82-33 88 5-98-19 62-14-74 5 43-42-57 26 4-46-44 36-2-58-30 59-30-93-36 66-47-18 16 41-44-20 27 41-72-12 64 30-76-7 71 19-143 7 131 17-108 27 101-7-50 35 69-16-27 26 36-16-13 51 70-33v54l23-51 34 46"/><g><path fill="#FFF" d="M499 8l427 247-425 247L74 255 499 8zm2 485l408-238L499 18 91 255l410 238"/></g><g><path fill="#FFF" d="M277 584l-2-11v-5l-1-7 1-5v-5l-1-4v-4l-2-5v-3l1-2 1-2 2-1h3l4 2 4 3 3 3 2 3 2 4 2 3 1 4v8l-1 3-1 4-1 4-1 5v6l-1 7v6l-1 7v20l-1 12v33l-3 4h-1l-2-2-1-3v-3l-1-6v-6l-1-13-1-4-1-5v-20l1-2-1-3v-8l-1-4v-3z"/><path fill="#FFF" d="M74 255l427 247-1 492L72 747l2-492zm417 724l2-472L82 270l-1 472 410 237"/><path fill="#FFF" d="M398 745l69 100-84-76 57 91-82-86 55 143-85-148-7 75-37-81-8 59-15-72-24 53-6-84-72 62 45-102-107 17 83-65-82-13 70-18-70-32 71-4-61-67 45 19-41-54 51 18-51-143 94 130-46-126 75 127-9-71 44 83 10-86 23 115 68-63-40 82 115 2-83 30 70 26-42 15 74 25-63 13 69 37-67 9 52 38-59-9 83 84-82-53zm-6 53l-47-74 77 69-55-79 50 32-47-47 48 7-42-30 59-8-65-35 50-11-65-22 44-16-70-26 49-17-66-2 18-38-32 29-15-76-6 56-37-70 8 67-50-86 35 96-95-131 39 110-40-14 43 56-38-16 49 53-47 3 58 27-44 11 52 8-66 52 80-13-31 71 45-39 5 67 20-44 10 48 4-35 37 80 7-70 47 81-32-82 56 58"/><path fill="#FFF" d="M300 698l1 3-1 3-2 7h-4l-2 1-3 2-3-1-4-1-3-9-3-4v-4l1-2 1-3 3-1h3l4 1 3 3 2 2h2l3 1z"/><g><path fill="#FFF" d="M759 664l1 2-1 4-2 10-4 3-2 4-3 5-3 3-4 4-3-6-3-1v-3l1-3 1-4 3-5 3-4 3-3h4l2-1 2-2 3-3zM735 577l-1-9v-5l-1-6v-14l-1-3-1-3v-7l1-3 2-3 3-3 4-3 4-2h3l2 1 2 1 2 2 1 2v8l-1 5-1 5-1 4v6l-1 7v7l-1 7v7l-1 14v7l-1 13v12l1 5v15l-3 8-2 2h-1l-2-2 1-4-1-5v-6l-1-11-1-3-1-4v-11l-1-3v-5l1-3v-3l-1-7v-7zM695 701l1 2-1 4-2 10-4 3-2 4-3 5-4 3-4 4-2-6-3-1-1-3 2-3 1-4 3-5 3-4 3-3h3l3-1 2-2 3-3zM671 614l-2-9v-5l-1-6 1-6v-5l-1-3-1-3-1-3v-4l1-3v-2l3-4 3-3 4-2 4-3h3l2 1 2 1 2 2 1 2v8l-1 5-1 5-1 4-1 6v7l-1 7v14l-1 14v7l-1 13v12l1 5v15l-3 8-2 2h-2l-1-2 1-3-1-5v-7l-1-11-1-3-1-4v-11l-1-3v-5l1-3-1-3v-10l-1-4z"/><path fill="#FFF" d="M499 502l427-247 2 492-428 247-1-492zm420 240l-1-472-411 237 2 472 410-237"/><path fill="#FFF" d="M825 616l69 20-84 22 57 25-82 9 56 78-85-49-7 83-38-38-8 68-15-55-23 81-7-77-71 144 44-153-107 141 83-161-82 82 70-99-70 49 71-86-62 4 46-34-42-6 51-40-51-84 94 20-47-72 75 41-9-61 45 32 9-97 23 88 68-141-40 127 115-130-82 125 69-54-41 63 74-61-63 86 69-42-67 86 53-22-60 59 84-13-82 42zm-6 60l-47-19 77-20-55-16 50-25-48 7 48-48-41 17 58-75-65 40 50-69-65 54 44-66-70 54 48-74-66 75 19-60-32 66-16-58-5 63-38-27 9 57-51-28 36 55-96-21 40 66-40 31 44 6-39 29 49-4-47 57 59-41-44 63 52-52-66 127 80-105-31 107 45-91 5 61 20-67 10 36 4-39 38 36 6-77 47 27-33-45 57-7"/></g></g></svg>