<?xml version="1.0" encoding="utf-8"?>
<!-- Generator: Adobe Illustrator 16.0.0, SVG Export Plug-In . SVG Version: 6.00 Build 0)  -->
<!DOCTYPE svg PUBLIC "-//W3C//DTD SVG 1.1//EN" "http://www.w3.org/Graphics/SVG/1.1/DTD/svg11.dtd">
<svg version="1.1" xmlns="http://www.w3.org/2000/svg" xmlns:xlink="http://www.w3.org/1999/xlink" x="0px" y="0px" width="1000px"
	 height="1000px" viewBox="0 0 1000 1000" enable-background="new 0 0 1000 1000" xml:space="preserve">
<g id="Layer_2" display="none">
	<rect x="0" display="inline" fill="#8A8A8A" width="4060" height="1000"/>
</g>
<g id="Layer_1">
	<g>
		<g>
			<g>
				<g enable-background="new    ">
					<g>
						<polygon fill="#FFFFFF" points="519.891,232.133 526.998,226.449 531.56,223.798 536.222,219.921 541.346,217.853 
							545.685,215.331 547.899,213.134 550.342,210.679 552.662,208.029 555.669,206.281 558.343,205.253 561.131,204.409 
							565.702,204.733 569.947,205.898 573.638,208.029 577.56,210.55 579.023,212.938 579.935,215.265 579.609,217.532 
							579.068,219.791 577.628,221.664 574.182,224.443 570.396,225.866 565.829,227.219 561.263,228.837 557.04,230.647 
							551.581,233.036 545.686,235.944 538.672,239.244 533,242.281 526.106,245.51 513.867,252.105 508.419,255.271 
							496.735,261.019 491.063,264.056 486.06,267.222 481.73,270.264 469.057,277.628 460.69,279.243 458.016,278.727 457,277.112 
							458.433,274.979 461.559,273.946 465.441,270.647 470.552,267.418 479.667,260.827 482.109,258.372 485.217,255.397 
							494.332,250.1 497.112,247.708 501.001,245.448 504.121,244.67 506.452,242.797 512.789,239.115 515.125,236.98 
							518.017,235.042 						"/>
					</g>
					<g>
						<polygon fill="#FFFFFF" points="456.995,296.561 455.338,298.308 451.322,299.34 442.079,302.249 437.159,300.958 
							433.034,300.892 427.346,301.084 422.316,299.474 417.394,297.792 420.826,292.558 420.366,289.97 423.14,287.582 
							426.262,287.062 430.387,286.225 435.632,286.417 440.989,287.32 445.012,288.614 446.928,291.006 448.719,292.554 
							451.964,293.656 455.532,294.43 						"/>
					</g>
					<g>
						<path fill="#FFFFFF" d="M562.702,347.927l17.534,70.299l-61.382-62.348l7.911,62.143l-49.595-66.765l-38.842,87.522
							l-0.44-98.54l-75.385,35.561l13.489-51.588l-62.644,27.618l40.044-40.379l-81.5,19.626l63.014-44.224l-160.19,10.687
							l154.633-38.116l-175.515-22.374l180.55-8.977l-111.925-30.09l121.154,11.073l-77.477-36.427l109.732,18.659l-34.756-51.23
							l52.457,22.681l-15.733-38.897l60.379,23.344l47.492-86.217l29.517,91.975l38.648-76.832l2.392,85.734l48.243-38.599
							l-5.584,54.799l88.341-40.353l-63.954,64.023l155.722-11.878l-130.11,29.449l170.664,34.426l-149.945-8.861l81.519,33.167
							l-74.947-4.287l89.716,33.471l-105.94-11.394l70.771,38.251l-107.492-14.737l45.405,34.62l-81.249-21.601l52.853,65.662
							L562.702,347.927z M507.623,372.731l-6.406-50.339l55.774,56.65l-13.783-55.246l47.118,30.415l-30.294-37.647l65.863,17.517
							l-35.702-27.226l94.742,12.99l-67.472-36.464l84.321,9.067L622.593,262.9l79.414,4.544l-81.799-33.278l87.63,5.179
							l-97.416-19.655l61.303-13.871l-73.547,5.611l42.601-42.65l-56.931,25.999l4.65-45.528l-44.931,35.934l-1.604-57.752
							l-29.599,58.836l-30.07-93.674l-36.738,66.706l-47.05-18.192l16.369,40.468l-44.26-19.139l27.604,40.696l-72.172-12.274
							l64.429,30.296l-76.031-6.948l70.994,19.083l-143.211,7.123l130.738,16.665l-108.201,26.673l101.535-6.778l-49.86,34.997
							l68.096-16.4l-26.692,26.917l36.274-15.991l-13.239,50.661l70.282-33.159l0.235,54.28l22.575-50.855L507.623,372.731"/>
					</g>
				</g>
				<g>
					<path fill="#FFFFFF" d="M498.611,8.497l427.803,246.992l-425.03,247L73.581,255.498L498.611,8.497z M501.328,492.611
						l408.03-237.122L498.666,18.376L90.635,255.498L501.328,492.611"/>
				</g>
			</g>
		</g>
		<g>
			<g>
				<g>
					<g>
						<polygon fill="#FFFFFF" points="276.718,583.835 275.398,573.284 275.414,568.01 274.423,560.869 275.223,556.304 
							275.237,551.285 274.461,547.362 273.579,542.987 272.473,538.358 272.482,534.881 272.937,532.571 273.614,530.508 
							276.194,529.683 279.332,530.208 283.029,532.343 287.166,534.988 289.964,538.147 292.417,541.363 294.204,544.85 
							295.876,548.387 296.762,551.603 297.419,556.751 296.738,559.967 295.61,563.306 294.704,567.037 294.13,570.953 
							293.444,576.098 292.979,582.142 292.282,589.087 292.041,595.253 291.35,602.07 290.864,615.451 290.846,621.753 
							289.917,633.709 289.676,639.882 289.882,646.056 290.313,651.846 290.271,666.512 287.457,671.323 285.66,671.314 
							283.76,669.189 282.651,665.588 283.33,663.143 282.452,657.095 282.246,650.796 281.155,638.313 280.272,633.938 
							279.277,628.595 279.307,618.053 278.648,613.674 278.661,609.177 279.562,607.118 279.124,603.646 279.145,596.317 
							278.484,592.452 278.271,588.722 						"/>
					</g>
					<g>
						<path fill="#FFFFFF" d="M73.596,255.211l427.808,246.995l-1.394,491.587L72.202,746.799L73.596,255.211z M491.483,979.024
							l1.338-471.926L82.123,269.982l-1.338,471.925L491.483,979.024"/>
					</g>
					<g enable-background="new    ">
						<g>
							<path fill="#FFFFFF" d="M397.883,744.866l69.314,100.194l-84.54-75.718l57.446,90.74l-82.395-85.695l55.752,142.137
								l-85.009-147.38l-7.335,74.857l-37.598-81.083l-7.766,59.308l-14.595-71.932l-24.13,52.749l-6.336-84.264l-71.416,61.941
								l45.028-101.397L96.722,696.17l83.142-65.215l-82.223-12.939l70.5-18.175l-70.331-32.302l71.284-3.537l-61.569-66.713
								l45.908,18.901l-41.384-53.706l50.477,17.627l-50.283-142.667L206.23,466.64l-46.647-126.076l74.959,127.63l-8.921-71.604
								l44.33,83.619l9.746-85.729l22.897,114.165l68.144-62.44l-40.142,81.393l115.514,2.584l-83.086,29.739l69.556,26.262
								l-41.406,15.078l73.953,24.377L402,638.956l68.528,36.955l-66.77,8.774l52.637,38.797l-59.476-9.03l83.087,83.118
								L397.883,744.866z M391.511,797.792l-46.534-73.507l76.808,68.792l-54.474-78.738l49.887,32.015l-47.643-47.655l48.217,7.321
								l-41.392-30.512l58.857-7.729l-65.329-35.227l50.239-10.609l-65.272-21.511l43.871-15.977l-69.798-26.357l48.557-17.372
								l-65.93-1.477l18.91-38.346l-32.188,29.489l-15.253-76.052l-6.277,55.244l-36.837-69.481l8.31,66.673l-50.501-85.984
								l35.73,96.555l-95.727-131.583l38.896,110.375l-39.329-13.734l43.054,55.874l-38.741-15.952l48.907,52.993l-46.884,2.325
								l58.498,26.874l-44.242,11.405l52.148,8.203l-65.953,51.726l80.141-12.548l-31.512,70.953L238,694.993l5.01,66.679
								l20.167-44.073l9.726,47.942l4.496-34.337l36.918,79.617l6.842-69.784l46.817,81.167l-32.393-82.583L391.511,797.792"/>
						</g>
						<g>
							<polygon fill="#FFFFFF" points="300.497,698.304 301.159,701.39 300.032,704.091 297.883,711.095 294.297,710.575 
								292.158,711.654 289.467,713.576 285.542,712.604 281.619,711.5 278.843,702.682 276.392,698.944 275.727,694.569 
								276.856,692.899 278.206,690.461 281.011,689.243 284.49,689.063 287.628,689.846 290.645,692.872 292.884,694.681 
								295.459,695.396 297.928,695.534 							"/>
						</g>
					</g>
				</g>
			</g>
			<g>
				<g>
					<g>
						<polygon fill="#FFFFFF" points="759.346,663.752 760.03,666.061 758.916,670.056 756.813,679.515 753.235,683.124 
							751.116,686.662 748.438,691.69 744.527,695.234 740.611,698.657 737.794,693.067 735.323,692.179 734.641,688.575 
							735.752,685.619 737.09,681.62 739.879,677.182 743.339,672.994 746.471,670.149 749.501,669.692 751.736,668.917 
							754.313,666.657 756.769,663.946 						"/>
					</g>
					<g>
						<polygon fill="#FFFFFF" points="734.997,577.07 733.628,568.072 733.613,562.797 732.586,556.821 733.356,551.35 
							733.343,546.338 732.547,543.314 731.643,539.971 730.514,536.633 730.504,533.162 730.943,530.329 731.607,527.499 
							734.174,523.695 737.305,520.602 741.002,518.467 745.14,516.336 747.94,516.269 750.41,516.644 752.204,518.055 
							753.897,519.656 754.799,521.84 755.482,526.207 754.823,530.197 753.711,534.836 752.828,539.593 752.278,544.165 
							751.624,550.084 751.195,556.637 750.545,564.359 750.34,570.791 749.689,578.375 749.281,592.271 749.3,598.574 
							748.435,611.565 748.229,617.996 748.47,623.912 748.938,629.183 748.979,643.841 746.195,651.893 744.41,653.952 
							742.505,654.023 741.379,651.705 742.042,648.493 741.132,643.478 740.885,637.44 739.734,626.252 738.829,622.908 
							737.808,618.729 737.777,608.188 737.096,604.583 737.083,600.086 737.969,596.995 737.513,594.039 737.492,586.711 
							736.812,583.62 736.578,580.154 						"/>
					</g>
					<g>
						<polygon fill="#FFFFFF" points="695.174,700.802 695.857,703.11 694.744,707.105 692.641,716.564 689.063,720.174 
							686.944,723.712 684.266,728.74 680.355,732.285 676.438,735.707 673.621,730.117 671.157,729.226 670.469,725.625 
							671.586,722.665 672.918,718.67 675.706,714.231 679.173,710.04 682.305,707.195 685.329,706.742 687.571,705.963 
							690.142,703.707 692.597,700.996 						"/>
					</g>
					<g>
						<polygon fill="#FFFFFF" points="670.831,614.116 669.456,605.122 669.44,599.848 668.413,593.871 669.185,588.398 
							669.171,583.388 668.375,580.364 667.471,577.021 666.342,573.683 666.332,570.213 666.771,567.379 667.436,564.549 
							670.002,560.745 673.133,557.651 676.829,555.518 680.968,553.386 683.769,553.318 686.238,553.693 688.039,555.101 
							689.725,556.706 690.627,558.89 691.311,563.257 690.65,567.246 689.538,571.886 688.656,576.643 688.113,581.211 
							687.458,587.13 687.022,593.687 686.373,601.41 686.167,607.842 685.518,615.425 685.109,629.321 685.127,635.623 
							684.269,648.611 684.057,655.046 684.304,660.959 684.766,666.232 684.808,680.891 682.023,688.942 680.238,691.002 
							678.333,691.073 677.207,688.755 677.87,685.543 676.96,680.527 676.719,674.486 675.562,663.302 674.657,659.958 
							673.635,655.779 673.605,645.237 672.923,641.633 672.91,637.137 673.797,634.045 673.341,631.089 673.32,623.761 
							672.64,620.67 672.406,617.204 						"/>
					</g>
					<g>
						<path fill="#FFFFFF" d="M498.593,502.207L926.403,255.21l1.394,491.588L499.986,993.795L498.593,502.207z M919.215,741.906
							l-1.338-471.925l-410.7,237.117l1.338,471.926L919.215,741.906"/>
					</g>
					<g>
						<path fill="#FFFFFF" d="M824.601,616.406l69.648,19.966l-84.673,21.982l57.752,24.217l-82.599,9.557l56.351,77.378
							l-85.545-48.845l-6.896,83.042l-37.927-37.471l-7.404,68.073l-14.948-54.882l-23.753,80.388l-6.785-76.658l-70.846,144.067
							l44.325-152.992L524.147,915.046l82.521-160.847l-82.041,81.904l70.179-99.407l-70.29,48.892l71.024-85.707l-61.72,4.47
							l45.852-34.064l-41.526-5.851l50.393-40.608l-50.92-84.239l94.387,20.431l-47.221-71.867l75.449,40.8l-9.305-61.11
							l44.659,32.27l9.235-96.689l23.462,87.394l67.536-140.775l-39.52,127.393l115.145-130.609l-82.634,125.426l69.452-54.001
							l-41.173,62.769l73.869-60.975l-62.857,86.062l68.495-42.155l-66.483,85.708l52.664-21.991l-59.299,59.529l83.279-12.91
							L824.601,616.406z M818.549,676.491l-46.779-19.619l76.923-19.962l-54.742-15.697l49.904-25.585l-47.726,7.396l48.071-48.255
							l-41.404,17.29l58.594-75.546l-65.307,40.196l50.026-68.492l-65.18,53.807l43.617-66.496l-69.7,54.196l48.294-73.304
							l-65.723,74.547l18.618-60.019l-31.902,66.499l-15.635-58.226l-5.949,62.317l-37.104-26.813l8.654,56.892l-50.81-27.482
							l36.166,55.037l-96.139-20.809l39.387,65.154l-39.285,31.662l43.217,6.087L567.956,690l49.016-3.549l-46.718,56.373
							l58.471-40.672l-44.045,62.392l52.043-51.96l-65.457,127.589l79.82-104.894l-31.02,107.062l44.897-91.309l5.371,60.654
							l19.852-67.179l9.959,36.585l4.294-39.419l37.241,36.794l6.425-77.407l47.15,26.922l-32.773-44.995L818.549,676.491"/>
					</g>
				</g>
			</g>
		</g>
	</g>
</g>
</svg>
