<svg xmlns="http://www.w3.org/2000/svg" width="1000" height="1000" version="1"><path fill="#FFF" d="M777 436l38-65v170l-14 24-24-13zM770 432l-122 71-38-22 198-114z"/><path fill="#FFF" d="M498 502l428-247 2 492-428 247-2-492zm421 240l-1-472-411 237 1 472 411-237"/><path fill="#FFF" d="M625 675l19-32 131-76 19 11-19 32-131 76zM778 622l23-41 14 9 1 170-38-22z"/><g><path fill="#FFF" d="M649 821l122-71 38 22-197 114z"/></g><g><path fill="#FFF" d="M220 434l-1 116-23 13-14-24V369zM353 641l19 32-20 11-131-76-18-32 18-11zM355 699l24-14 13 25v170l-38-65zM355 512l38-21-1 170-13 8-24-41z"/><path fill="#FFF" d="M74 255l428 247-2 492L72 747l2-492zm418 724l1-472L82 270l-1 472 411 237"/></g><g><path fill="#FFF" d="M219 223h225v65H219z"/><path fill="#FFF" d="M499 8l427 247-425 247L74 255 499 8zm2 485l408-238L499 18 91 255l410 238"/><path fill="#FFF" d="M781 223v65H556v-65z"/><path fill="#FFF" d="M555 93l1 130v65l1 130H445l-1-130v-65l-1-130z"/></g></svg>