<?xml version="1.0" encoding="utf-8"?>
<!-- Generator: Adobe Illustrator 16.0.0, SVG Export Plug-In . SVG Version: 6.00 Build 0)  -->
<!DOCTYPE svg PUBLIC "-//W3C//DTD SVG 1.1//EN" "http://www.w3.org/Graphics/SVG/1.1/DTD/svg11.dtd">
<svg version="1.1" xmlns="http://www.w3.org/2000/svg" xmlns:xlink="http://www.w3.org/1999/xlink" x="0px" y="0px" width="1000px"
	 height="1000px" viewBox="0 0 1000 1000" enable-background="new 0 0 1000 1000" xml:space="preserve">
<g id="Layer_2" display="none">
	<rect x="-2040" display="inline" fill="#8A8A8A" width="4060" height="1000"/>
</g>
<g id="Layer_1">
	<g>
		<g>
			<g>
				<g>
					<g>
						<polygon fill="#FFFFFF" points="777.051,435.97 814.571,370.812 815.055,541.032 801.366,565.167 777.379,551.768 						"/>
					</g>
					<g enable-background="new    ">
						<g>
							<polygon fill="#FFFFFF" points="770.337,431.917 647.893,502.609 610.482,480.882 807.501,367.133 							"/>
						</g>
						<g>
							<path fill="#FFFFFF" d="M498.488,502.207L926.299,255.21l1.394,491.588L499.881,993.795L498.488,502.207z M919.107,741.907
								l-1.338-471.925L507.072,507.099l1.338,471.926L919.107,741.907"/>
						</g>
					</g>
					<g>
						<polygon fill="#FFFFFF" points="625.168,675.266 643.686,642.911 775.19,566.986 794.399,577.559 775.313,610.242 
							643.808,686.167 						"/>
					</g>
					<g>
						<polygon fill="#FFFFFF" points="777.579,622.463 801.412,581.389 815.193,590.281 815.676,760.26 777.908,738.481 						"/>
					</g>
					<g>
						<polygon fill="#FFFFFF" points="648.796,821.158 771.24,750.465 808.649,772.194 611.631,885.943 						"/>
					</g>
				</g>
			</g>
			<g>
				<g>
					<g enable-background="new    ">
						<g>
							<polygon fill="#FFFFFF" points="219.529,433.991 219.2,549.789 195.532,563.38 181.519,539.05 182.001,368.829 							"/>
						</g>
						<g>
							<polygon fill="#FFFFFF" points="352.536,640.733 371.615,673.412 352.414,683.989 220.908,608.064 202.613,575.839 
								221.031,564.809 							"/>
						</g>
						<g>
							<polygon fill="#FFFFFF" points="354.616,698.804 378.604,685.324 392.29,710.09 391.808,880.179 354.287,814.91 							"/>
						</g>
						<g>
							<polygon fill="#FFFFFF" points="355.145,512.297 392.912,490.606 392.43,660.826 378.65,669.104 354.816,628.095 							"/>
						</g>
						<g>
							<path fill="#FFFFFF" d="M73.694,255.21l427.812,246.997l-1.395,491.588L72.301,746.798L73.694,255.21z M491.585,979.025
								l1.338-471.926L82.224,269.982l-1.338,471.925L491.585,979.025"/>
						</g>
					</g>
				</g>
			</g>
		</g>
		<g>
			<g>
				<g>
					<polygon fill="#FFFFFF" points="219.088,222.982 443.667,222.979 444.034,288.012 219.455,288.016 					"/>
				</g>
				<g>
					<path fill="#FFFFFF" d="M498.606,8.495l427.811,246.997l-425.03,247.001L73.576,255.495L498.606,8.495z M501.331,492.613
						l408.03-237.121L498.662,18.375L90.632,255.496L501.331,492.613"/>
				</g>
				<g>
					<polygon fill="#FFFFFF" points="780.538,222.973 780.897,288.008 556.314,288.012 555.95,222.977 					"/>
				</g>
				<g>
					<polygon fill="#FFFFFF" points="555.224,92.888 555.951,222.978 556.314,288.012 557.041,418.1 444.769,418.101 
						444.034,288.013 443.667,222.979 442.932,92.899 					"/>
				</g>
			</g>
		</g>
	</g>
</g>
</svg>
