<?xml version="1.0" encoding="utf-8"?>
<!-- Generator: Adobe Illustrator 16.0.0, SVG Export Plug-In . SVG Version: 6.00 Build 0)  -->
<!DOCTYPE svg PUBLIC "-//W3C//DTD SVG 1.1//EN" "http://www.w3.org/Graphics/SVG/1.1/DTD/svg11.dtd">
<svg version="1.1" xmlns="http://www.w3.org/2000/svg" xmlns:xlink="http://www.w3.org/1999/xlink" x="0px" y="0px" width="1000px"
	 height="1000px" viewBox="0 0 1000 1000" enable-background="new 0 0 1000 1000" xml:space="preserve">
<g id="Layer_2" display="none">
	<rect x="-1020" display="inline" fill="#8A8A8A" width="4060" height="1000"/>
</g>
<g id="Layer_1">
	<g>
		<g>
			<g>
				<g enable-background="new    ">
					<g>
						<polygon fill="#FFFFFF" points="780.541,222.973 780.901,288.009 556.317,288.012 555.953,222.977 						"/>
					</g>
					<g>
						<polygon fill="#FFFFFF" points="219.091,222.983 443.67,222.979 444.038,288.013 219.458,288.016 						"/>
					</g>
					<g>
						<polygon fill="#FFFFFF" points="555.227,92.889 555.953,222.978 556.316,288.012 557.044,418.101 444.771,418.102 
							444.037,288.013 443.67,222.979 442.935,92.9 						"/>
					</g>
					<g>
						<path fill="#FFFFFF" d="M498.608,8.495L926.42,255.491L501.389,502.492L73.578,255.495L498.608,8.495z M501.334,492.613
							l408.029-237.121L498.664,18.375L90.634,255.496L501.334,492.613"/>
					</g>
				</g>
			</g>
		</g>
		<g>
			<g>
				<g>
					<g>
						<path fill="#FFFFFF" d="M498.203,502.207L926.014,255.21l1.394,491.587L499.597,993.795L498.203,502.207z M918.824,741.906
							l-1.338-471.925L506.786,507.1l1.338,471.926L918.824,741.906"/>
					</g>
					<g>
						<polygon fill="#FFFFFF" points="780.71,620.505 804.543,579.416 818.331,588.32 818.813,758.409 781.039,736.611 						"/>
					</g>
					<g>
						<polygon fill="#FFFFFF" points="778.309,565.021 797.518,575.595 778.431,608.277 646.926,684.202 628.508,673.172 
							646.804,640.946 						"/>
					</g>
					<g>
						<polygon fill="#FFFFFF" points="780.182,433.998 817.709,368.836 818.191,539.056 804.497,563.194 780.51,549.796 						"/>
					</g>
					<g>
						<polygon fill="#FFFFFF" points="644.564,512.288 644.894,628.087 621.386,668.914 607.28,660.818 606.798,490.598 						"/>
					</g>
				</g>
			</g>
			<g>
				<g>
					<g>
						<polygon fill="#FFFFFF" points="117.852,656.405 230.871,591.991 287.009,689.225 173.987,753.635 						"/>
					</g>
					<g enable-background="new    ">
						<g>
							<polygon fill="#FFFFFF" points="400.402,495.371 456.538,592.61 343.515,657.021 287.379,559.787 							"/>
						</g>
						<g>
							<path fill="#FFFFFF" d="M73.986,255.21l427.811,246.997l-1.394,491.588L72.593,746.798L73.986,255.21z M491.877,979.025
								l1.338-471.926L82.514,269.981l-1.338,471.925L491.877,979.025"/>
						</g>
						<g>
							<polygon fill="#FFFFFF" points="175.089,365.287 287.379,559.788 343.516,657.022 455.805,851.522 399.303,883.721 
								287.01,689.226 230.872,591.992 118.586,397.508 							"/>
						</g>
					</g>
				</g>
			</g>
		</g>
	</g>
</g>
</svg>
