<svg xmlns="http://www.w3.org/2000/svg" width="1000" height="1000" version="1"><path fill="#FFF" d="M781 223v65H556v-65zM219 223h225v65H219z"/><path fill="#FFF" d="M555 93l1 130v65l1 130H445l-1-130v-65l-1-130z"/><path fill="#FFF" d="M499 8l427 247-425 247L74 255 499 8zm2 485l408-238L499 18 91 255l410 238"/><g><path fill="#FFF" d="M498 502l428-247 1 492-427 247-2-492zm421 240l-2-472-410 237 1 472 411-237"/><path fill="#FFF" d="M781 621l24-42 13 9 1 170-38-21zM778 565l20 11-20 32-131 76-18-11 18-32zM780 434l38-65v170l-14 24-23-13zM645 512v116l-24 41-14-8V491z"/><g><path fill="#FFF" d="M118 656l113-64 56 97-113 65zM400 495l57 98-113 64-57-97z"/><path fill="#FFF" d="M74 255l428 247-2 492L73 747l1-492zm418 724l1-472L83 270l-2 472 411 237"/><path fill="#FFF" d="M175 365l112 195 57 97 112 195-57 32-112-195-56-97-112-194z"/></g></g></svg>