<svg xmlns="http://www.w3.org/2000/svg" width="1000" height="1000" version="1"><path fill="none" stroke="#FFF" stroke-miterlimit="10" stroke-width="22" d="M869 710l-188-52 121 106-161-65 103 176-154-154-17 155-87-120-14 103-29-108-51 124-14-146-136 171 89-220-219 140 174-206-157 57 134-97-151 15 138-75-129-57 99-14-99-62 105-21-105-204 222 153-97-177 147 143-20-130 95 108 18-153 45 171 117-152-69 156 212-102-153 125 162-29-99 82 163-35-133 91 157-6-147 91 110 15-125 47 153 56-155-9z"/><path fill="#FFF" d="M599 350l-1 7-3 8-2 9-1 9-2 11-1 13-1 15-1 12-2 15-1 28v13l-2 25v25l1 11v30l-6 13-4 2-5-2-2-6 1-5-2-12v-12l-3-24-2-8-3-10v-21l-1-8v-10l2-5-1-6v-15l-2-7v-8l-4-8-3-20v-10l-2-14 2-10v-10l-2-7-2-8-3-8v-7l1-5 2-5 6-5 7-3h9l9 1 7 3 6 4 4 5 4 5 2 5 1 10zm10 289l-3 7-5 17-8 3-5 5-6 7-9 2-10 3-6-15-6-5-1-8 2-4 3-7 7-6 8-4 7-2 7 2 6 1 6-1 5-3 6 3 2 5zM449 350l-1 7-3 8-2 9-1 9-2 11-1 13-1 15-1 12-2 15-1 28v13l-2 25v25l1 11v30l-6 13-4 2-5-2-2-6 1-5-2-12v-12l-3-24-2-8-3-10v-21l-1-8v-10l2-5-1-6v-15l-2-7v-8l-4-8-3-20v-10l-2-14 2-10v-10l-2-7-2-8-3-8v-7l1-5 2-5 6-5 7-3h9l9 1 7 3 6 4 4 5 4 5 2 5 1 10zm10 289l-3 7-5 17-8 3-5 5-6 7-9 2-10 3-6-15-6-5-1-8 2-4 3-7 7-6 8-4 7-2 7 2 6 1 6-1 5-3 6 3 2 5z"/></svg>