<?xml version="1.0" encoding="utf-8"?>
<!-- Generator: Adobe Illustrator 16.0.0, SVG Export Plug-In . SVG Version: 6.00 Build 0)  -->
<!DOCTYPE svg PUBLIC "-//W3C//DTD SVG 1.1//EN" "http://www.w3.org/Graphics/SVG/1.1/DTD/svg11.dtd">
<svg version="1.1" xmlns="http://www.w3.org/2000/svg" xmlns:xlink="http://www.w3.org/1999/xlink" x="0px" y="0px" width="1000px"
	 height="1000px" viewBox="0 0 1000 1000" enable-background="new 0 0 1000 1000" xml:space="preserve">
<g id="Layer_2" display="none">
	<rect x="-1020" y="-2040" display="inline" fill="#7C7C7C" width="3040" height="3040"/>
</g>
<g id="Layer_1">
	<g>
		<polygon fill="none" stroke="#FFFFFF" stroke-width="22.1187" stroke-miterlimit="10" points="869.281,710.231 680.585,658.091 
			802.411,763.892 640.558,698.892 744.141,875.4 589.563,720.675 573.488,875.8 486.029,756.315 472.022,858.602 443.261,751.131 
			391.894,875.4 378.161,728.85 242.326,900 331.104,680.098 112.125,819.996 285.743,613.852 128.85,671.176 262.664,573.849 
			112.125,589.301 249.978,514.058 120.748,457.28 219.596,443.074 120.748,381.264 225.628,360.452 120.748,155.805 
			342.919,309.385 246.04,131.629 393.139,274.988 372.577,144.638 467.786,252.559 486.029,100 531.166,270.802 647.886,118.618 
			579.418,274.84 791.146,172.553 637.715,297.595 800.442,269.307 701.071,350.856 863.698,315.814 731.479,406.586 
			887.875,401.402 741.397,491.825 851.286,507.079 725.646,553.586 878.578,609.764 724.25,601.091 		"/>
		<g>
			<path fill="#FFFFFF" d="M599.33,349.96l-1.57,7.325l-2.615,8.11l-2.094,8.634l-1.309,8.633l-1.568,11.25l-1.047,12.819
				l-1.57,14.913l-0.523,12.819l-1.568,14.65l-1.047,27.732v12.819l-2.094,25.378l-0.523,12.819l0.523,12.296l1.047,11.25v29.825
				l-6.541,13.081l-4.186,2.093l-4.447-2.093l-2.616-6.018l1.569-5.756l-2.093-11.25l-0.522-12.558l-2.616-24.069l-2.094-7.849
				l-2.354-9.68v-21.453l-1.569-8.11v-9.157l2.093-5.232l-1.046-6.54V451.73l-1.57-7.063l-0.522-7.325l-3.663-8.11l-3.14-19.884
				v-10.727l-2.354-13.342l1.83-10.204v-10.203l-1.83-7.063l-2.094-7.849l-2.615-8.11v-7.063l1.046-5.233l1.569-4.971l6.018-4.709
				l7.325-2.616h8.633l9.68,0.523l6.54,3.14l5.756,3.662l4.186,4.971l3.926,5.233l2.092,5.493L599.33,349.96z M609.01,639.314
				l-2.617,6.802l-4.971,16.744l-8.371,3.14l-4.971,4.709l-6.279,7.063l-9.156,2.616l-9.156,2.354l-6.54-14.65l-5.756-4.709
				l-1.569-8.11l2.616-4.709l3.139-6.541l6.541-5.756l8.109-4.447l7.325-2.093l7.064,2.616l5.232,1.046l6.018-1.569l5.754-2.616
				l6.018,2.616L609.01,639.314z"/>
		</g>
		<g>
			<path fill="#FFFFFF" d="M449.33,349.96l-1.57,7.325l-2.616,8.11l-2.093,8.634l-1.308,8.633l-1.569,11.25l-1.047,12.819
				l-1.569,14.913l-0.523,12.819l-1.569,14.65l-1.047,27.732v12.819l-2.093,25.378l-0.523,12.819l0.523,12.296l1.046,11.25v29.825
				l-6.54,13.081l-4.186,2.093l-4.447-2.093l-2.616-6.018l1.569-5.756l-2.093-11.25l-0.523-12.558l-2.616-24.069l-2.093-7.849
				l-2.354-9.68v-21.453l-1.569-8.11v-9.157l2.093-5.232l-1.047-6.54V451.73l-1.569-7.063l-0.523-7.325l-3.662-8.11l-3.14-19.884
				v-10.727l-2.354-13.342l1.831-10.204v-10.203l-1.831-7.063l-2.093-7.849l-2.616-8.11v-7.063l1.047-5.233l1.569-4.971l6.017-4.709
				l7.325-2.616h8.634l9.68,0.523l6.54,3.14l5.756,3.662l4.186,4.971l3.924,5.233l2.093,5.493L449.33,349.96z M459.01,639.314
				l-2.616,6.802l-4.971,16.744l-8.372,3.14l-4.971,4.709l-6.278,7.063l-9.156,2.616l-9.156,2.354l-6.541-14.65l-5.755-4.709
				l-1.57-8.11l2.616-4.709l3.14-6.541l6.54-5.756l8.11-4.447l7.325-2.093l7.063,2.616l5.232,1.046l6.017-1.569l5.756-2.616
				l6.017,2.616L459.01,639.314z"/>
		</g>
	</g>
</g>
<g id="Layer_3" display="none">
</g>
</svg>
