<svg xmlns="http://www.w3.org/2000/svg" width="1000" height="1000" version="1"><g fill="#FFF"><path d="M237 895l-54-54-1-51-43 7-34-34 152-148 59 20-30-53 274-274 46 16-12-49 67-67 37 35 2-67 35-23 28-48 132 132-81 80-27-33 4 36-23 44-299 299-20-1-11-11 9 33-55 56-15 2-14 27-65 65-14 9-11-53-11 80z"/><path d="M105 237l51-51 29 5h57l-54-37 49-49 92 102 4 24-5 29-4 40 31-34 38-4 314 313 9 17-28 42 50-21 15 8 103 104-13 29 14 47-94 94-65-66 11-39-39 13-87-89-12-16 16-31-60-8-171-171 28-34-55 8-113-115-8-10 18-21-22 9-18-7z"/></g></svg>