<?xml version="1.0" encoding="utf-8"?>
<!-- Generator: Adobe Illustrator 16.0.0, SVG Export Plug-In . SVG Version: 6.00 Build 0)  -->
<!DOCTYPE svg PUBLIC "-//W3C//DTD SVG 1.1//EN" "http://www.w3.org/Graphics/SVG/1.1/DTD/svg11.dtd">
<svg version="1.1" xmlns="http://www.w3.org/2000/svg" xmlns:xlink="http://www.w3.org/1999/xlink" x="0px" y="0px" width="1000px"
	 height="1000px" viewBox="0 0 1000 1000" enable-background="new 0 0 1000 1000" xml:space="preserve">
<g id="Layer_2" display="none">
	<rect display="inline" fill="#7C7C7C" width="3040" height="3040"/>
</g>
<g id="Layer_1">
	<g>
		<polygon fill="#FFFFFF" points="236.667,895 182.718,841.071 182.274,790.369 182.274,790.369 138.849,797.203 105.021,763.354 
			257.109,615.075 316.461,635.094 286.462,581.871 559.997,308.336 605.842,324.384 593.544,274.749 593.544,274.749 
			660.637,207.696 698.376,242.855 699.668,175.763 734.504,152.538 763.333,105 894.979,236.667 814.218,317.409 786.599,284.184 
			791.275,320.271 767.769,363.857 469.074,662.552 449.357,662.188 437.745,650.577 447.14,684.465 391.659,739.968 
			377.103,742.185 362.628,768.998 297.51,834.155 284.205,842.824 272.592,790.369 261.988,869.639 		"/>
		<polygon fill="#FFFFFF" points="105.021,236.687 156.026,185.642 184.855,191.246 241.626,191.246 187.637,154.029 236.667,105 
			329.363,206.729 333.234,231.245 328.114,259.872 324.202,299.626 355.169,266.081 393.231,261.564 706.764,575.117 
			716.48,592.333 688.055,633.805 738.375,613.16 752.567,620.961 856.393,724.787 842.884,753.796 856.916,801.375 763.333,895 
			697.651,829.338 708.698,790.369 669.99,802.828 582.778,714.444 571.084,697.611 587.415,667.351 527.336,659.024 
			356.338,488.026 383.555,454.458 329.444,462.119 215.7,347.387 208.079,337.044 226.143,316.401 204.209,325.433 
			186.064,317.731 		"/>
	</g>
</g>
<g id="Layer_3" display="none">
</g>
</svg>
