<svg xmlns="http://www.w3.org/2000/svg" width="1000" height="1000" version="1"><path fill="none" stroke="#FFF" stroke-miterlimit="10" stroke-width="22" d="M869 710l-188-52 121 106-161-65 103 176-154-154-17 155-87-120-14 103-29-108-51 124-14-146-136 171 89-220-219 140 174-206-157 57 134-97-151 15 138-75-129-57 99-14-99-62 105-21-105-204 222 153-97-177 147 143-20-130 95 108 18-153 45 171 117-152-69 156 212-102-153 125 162-29-99 82 163-35-133 91 157-6-147 91 110 15-125 47 153 56-155-9z"/><path fill="#FFF" d="M395 658l-53-53 263-263 53 53z"/><path fill="#FFF" d="M342 395l53-53 263 263-53 53z"/></svg>