<?xml version="1.0" encoding="utf-8"?>
<!-- Generator: Adobe Illustrator 16.0.0, SVG Export Plug-In . SVG Version: 6.00 Build 0)  -->
<!DOCTYPE svg PUBLIC "-//W3C//DTD SVG 1.1//EN" "http://www.w3.org/Graphics/SVG/1.1/DTD/svg11.dtd">
<svg version="1.1" xmlns="http://www.w3.org/2000/svg" xmlns:xlink="http://www.w3.org/1999/xlink" x="0px" y="0px" width="1000px"
	 height="1000px" viewBox="0 0 1000 1000" enable-background="new 0 0 1000 1000" xml:space="preserve">
<g id="Layer_2" display="none">
	<rect x="-2040" display="inline" fill="#7C7C7C" width="3040" height="3040"/>
</g>
<g id="Layer_1">
	<g id="carac_2_">
		<polygon fill="none" stroke="#FFFFFF" stroke-width="22.1184" stroke-miterlimit="10" points="869.273,710.244 680.533,658.103 
			802.4,763.921 640.531,698.926 744.125,875.441 589.555,720.654 573.484,875.829 486.004,756.338 472.008,858.614 
			443.236,751.154 391.871,875.441 378.133,728.82 242.313,900 331.045,680.111 112.107,820.016 285.686,613.864 128.826,671.17 
			262.615,573.861 112.107,589.305 249.959,514.072 120.66,457.287 219.545,443.052 120.66,381.275 225.551,360.475 120.66,155.814 
			342.881,309.39 246.027,131.623 393.123,274.981 372.561,144.668 467.773,252.54 486.004,100 531.148,270.791 647.918,118.619 
			579.402,274.831 791.125,172.576 637.68,297.597 800.457,269.322 701.053,350.862 863.658,315.827 731.467,406.591 
			887.893,401.407 741.359,491.825 851.303,507.074 725.592,553.6 878.563,609.761 724.252,601.12 		"/>
		<polygon fill="#FFFFFF" points="394.809,657.799 342.189,605.203 605.193,342.222 657.768,394.797 		"/>
		<polygon fill="#FFFFFF" points="342.189,394.818 394.809,342.222 657.768,605.203 605.193,657.799 		"/>
	</g>
</g>
<g id="Layer_3" display="none">
</g>
</svg>
