<?xml version="1.0" encoding="utf-8"?>
<!-- Generator: Adobe Illustrator 16.0.0, SVG Export Plug-In . SVG Version: 6.00 Build 0)  -->
<!DOCTYPE svg PUBLIC "-//W3C//DTD SVG 1.1//EN" "http://www.w3.org/Graphics/SVG/1.1/DTD/svg11.dtd">
<svg version="1.1" xmlns="http://www.w3.org/2000/svg" xmlns:xlink="http://www.w3.org/1999/xlink" x="0px" y="0px" width="1000px"
	 height="1000px" viewBox="0 0 1000 1000" enable-background="new 0 0 1000 1000" xml:space="preserve">
<g id="Layer_2" display="none">
	<rect y="-1020" display="inline" fill="#7C7C7C" width="3040" height="3040"/>
</g>
<g id="Layer_1">
	<g>
		<g>
			<path fill="#FFFFFF" d="M524.332,349.952l-1.569,7.326l-2.616,8.11l-2.093,8.634l-1.309,8.635l-1.57,11.25l-1.046,12.82
				l-1.57,14.913l-0.523,12.82l-1.569,14.651l-1.047,27.733v12.82l-2.093,25.379l-0.523,12.82l0.523,12.297l1.047,11.25v29.826
				l-6.541,13.082l-4.187,2.092l-4.447-2.092l-2.617-6.018l1.57-5.756l-2.093-11.25l-0.523-12.559l-2.616-24.072l-2.094-7.848
				l-2.354-9.682v-21.453l-1.569-8.11v-9.157l2.093-5.233l-1.047-6.541v-14.913l-1.569-7.063l-0.523-7.326l-3.663-8.11l-3.14-19.885
				v-10.728l-2.354-13.343l1.831-10.204v-10.204l-1.831-7.063l-2.093-7.85l-2.617-8.11v-7.064l1.047-5.232l1.57-4.972l6.018-4.709
				l7.325-2.616h8.634l9.681,0.523l6.541,3.14l5.756,3.662l4.187,4.972l3.925,5.232l2.093,5.494L524.332,349.952z M534.013,639.32
				l-2.616,6.803l-4.971,16.746l-8.372,3.139l-4.972,4.709l-6.279,7.064l-9.157,2.617l-9.157,2.354l-6.541-14.65l-5.756-4.709
				l-1.569-8.111l2.616-4.709l3.14-6.541l6.541-5.756l8.11-4.449l7.326-2.092l7.063,2.615l5.233,1.047l6.018-1.57l5.756-2.615
				l6.018,2.615L534.013,639.32z"/>
		</g>
		<polygon fill="none" stroke="#FFFFFF" stroke-width="22.1187" stroke-miterlimit="10" points="869.279,710.246 680.535,658.104 
			802.404,763.924 640.531,698.928 744.127,875.445 589.555,720.658 573.484,875.836 486.003,756.342 472.006,858.619 
			443.234,751.158 391.869,875.445 378.131,728.824 242.309,900.006 331.043,680.115 112.102,820.02 285.682,613.867 
			128.82,671.172 262.613,573.863 112.102,589.307 249.955,514.072 120.655,457.286 219.541,443.051 120.655,381.274 
			225.547,360.473 120.655,155.81 342.879,309.388 246.023,131.618 393.121,274.979 372.559,144.665 467.772,252.537 
			486.003,99.995 531.148,270.789 647.919,118.615 579.402,274.828 791.129,172.572 637.681,297.594 800.461,269.32 
			701.056,350.861 863.663,315.826 731.469,406.59 887.898,401.406 741.361,491.825 851.308,507.074 725.594,553.602 
			878.567,609.762 724.254,601.123 		"/>
	</g>
</g>
<g id="Layer_3" display="none">
</g>
</svg>
